<?xml version="1.0" encoding="utf-8"?>
<!-- Generator: Adobe Illustrator 26.1.0, SVG Export Plug-In . SVG Version: 6.00 Build 0)  -->
<svg version="1.1" id="Layer_1" xmlns="http://www.w3.org/2000/svg" xmlns:xlink="http://www.w3.org/1999/xlink" x="0px" y="0px"
	 viewBox="0 0 2826.5 1518.1" style="enable-background:new 0 0 2826.5 1518.1;" xml:space="preserve">
<style type="text/css">
	.st0{fill:#F7931E;}
	.st1{fill:#F2F2F2;}
	.st2{fill:#FBB03B;}
	.st3{fill:none;}
	.st4{fill:#F7621E;}
</style>
<g id="a">
</g>
<g id="b">
	<g id="c">
		<g>
			<path class="st0" d="M642.3,733.7c0-13.4,0.2-26-0.1-38.7c-0.8-41.6-1.6-83.2-2.8-124.8c-0.6-21.9,11.4-35.9,29.3-44.5
				c72.8-35.4,146.1-69.9,219-105.1c40.8-19.7,81.7-22.2,124.9-6.9c72,25.6,143.9,51.4,213,84.4c11.4,5.4,22.1,12.6,32,20.4
				c20.2,16,30.9,37.1,32.1,63.1c3.6,75.5,8.2,150.9,11,226.4c2.5,69,3.4,138.1,4.5,207.1c0.4,27.4-10.2,51.5-29.6,70.1
				c-9.7,9.3-23.8,14-36.1,20.3c-40.3,20.7-80.8,41.2-121.3,61.7c-30,15.3-59.6,31.1-90,45.5c-19.9,9.5-41.1,10.6-61.3,0.6
				c-64.2-31.5-128.3-62.8-192-95.4c-34.4-17.6-67.7-37.6-101.6-56.2c-3.5-1.9-7.9-2.8-12-2.7c-73.6,1.6-147.3,3.5-220.9,5.2
				c-10.7,0.2-21.5,0-32.3-0.3c-25.2-0.9-39.2-14.1-40.1-39.3c-3-80.8-5.2-161.5-8.4-242.2c-0.9-22.8,11.5-40.7,39.5-41.7
				c33.5-1.3,67.1-3,100.6-3.8c44.9-1.2,90-1.7,135-2.5C637.4,734.3,640.2,733.9,642.3,733.7L642.3,733.7z M692.1,555.1
				c4.2,2,5.9,2.9,7.7,3.6c87.3,37.3,174.5,74.7,261.8,112c11.4,4.9,15.7,12.3,11.8,20.8s-11.8,10.4-23.4,5.4
				c-73.6-31.5-147.1-63.1-220.7-94.5c-18.5-7.9-36.9-15.7-56-23.7c0,12.7-0.3,24.3,0.1,36c3.8,135.4,7.6,271,11.8,406.4
				c0.1,4.3,3.3,10,6.8,12.5c9.1,6.7,19,12.8,29.1,17.9c78.8,40.2,157.8,80.1,236.8,120.1c4.5,2.3,9.3,4.3,14.9,7
				c0-2.9,0.1-4.5,0-6.1c-2-43.6-4-87.2-6-130.8c-3.8-84-7.7-167.9-11.5-251.9c-1-21.8-1.8-43.6-2.5-65.4
				c-0.3-10.6,5.2-16.7,14.5-17c9.2-0.3,14.7,5.4,15.5,16.1c0.4,4.9,0.8,9.8,1,14.6c3.3,70.9,6.5,141.9,9.8,212.8
				c2.2,48.5,4.3,97,6.5,145.5c1.3,29.3,2.8,58.5,4.3,89.3c4.3-1.3,7.9-2,11.1-3.6c75.1-38.2,150.1-76.4,225.2-114.7
				c4.2-2.2,9.4-3.5,12.4-6.8c11.8-13.2,18.9-28.8,18.6-47c-0.4-23.1-1.3-46.3-1.7-69.4c-2.2-118.9-4.1-237.7-13.2-356.4
				c-1.8-23.8-12.5-39.6-31.4-51.7c-6.8-4.4-14-8.6-21.5-11.5c-69.6-27.2-139.3-54.4-209.1-81.1c-28.8-11-57.6-8.8-85.4,4.4
				c-66.7,31.6-133.4,63.4-199.9,95.4C703.8,546,699,550.4,692.1,555.1L692.1,555.1z M394.2,829.5c-0.1,2.8-0.4,4.5-0.3,6.1
				c2.4,58.9,4.8,117.8,7.2,176.6c0.8,19-1.8,18.3,19.4,17.8c72.3-1.3,144.6-2.8,216.9-4.3c13.8-0.3,14.3-0.3,13.9-14.1
				c-1-46.2-2.5-92.4-3.6-138.5c-0.3-16.2-0.1-32.4-0.1-49.2C561.6,825.9,478.4,827.7,394.2,829.5L394.2,829.5z M644.9,767.4
				c-84.2,2.4-167.4,4.7-250.8,7v35.3c84.2-1.9,167.6-3.7,250.8-5.5V767.4L644.9,767.4z"/>
			<path class="st1" d="M692.1,555.1c6.8-4.7,11.7-9.1,17.3-11.8c66.5-31.9,133.2-63.8,199.9-95.4c27.7-13.2,56.5-15.4,85.4-4.4
				c69.8,26.7,139.5,53.9,209.1,81.1c7.5,2.9,14.7,7.1,21.5,11.5c18.8,12.1,29.5,27.9,31.4,51.7c9.1,118.7,11.1,237.5,13.2,356.4
				c0.4,23.1,1.3,46.3,1.7,69.4c0.3,18.2-6.8,33.7-18.6,47c-2.9,3.3-8.2,4.6-12.4,6.8c-75,38.3-150.1,76.5-225.2,114.7
				c-3.2,1.6-7,2.2-11.1,3.6c-1.5-30.7-3-60-4.3-89.3c-2.2-48.5-4.3-97-6.5-145.5c-3.2-70.9-6.5-141.9-9.8-212.8
				c-0.2-4.9-0.6-9.8-1-14.6c-0.8-10.7-6.3-16.4-15.5-16.1c-9.3,0.3-14.8,6.4-14.5,17c0.6,21.8,1.5,43.6,2.5,65.4
				c3.8,84,7.7,167.9,11.5,251.9c2,43.6,4,87.2,6,130.8c0.1,1.5,0,3.1,0,6.1c-5.6-2.6-10.3-4.7-14.9-7
				c-78.9-40-157.9-79.9-236.8-120.1c-10.1-5.2-19.9-11.1-29.1-17.9c-3.5-2.6-6.6-8.2-6.8-12.5c-4.2-135.4-8-271-11.8-406.4
				c-0.3-11.6-0.1-23.3-0.1-36c19,8.1,37.6,15.8,56,23.7c73.6,31.5,147.2,63,220.7,94.5c11.7,5,19.6,3.2,23.4-5.4
				c3.8-8.5-0.4-15.9-11.8-20.8c-87.4-37.2-174.6-74.5-261.9-111.8C698.1,557.9,696.4,557,692.1,555.1L692.1,555.1z M1234.9,562.1
				c-1.4-1.9-3.6-6.3-7-9.1c-6.3-5-12.3-1-18,2.2c-67.7,38.3-135.2,76.6-202.8,115c-5.9,3.3-12,6.7-17.3,10.8
				c-5,3.8-7.2,9.3-3.7,15.5c3.6,6.5,9,9.3,16.3,7.2c2.8-0.8,5.4-2.4,7.9-3.8c41.3-23.3,82.6-46.8,124-70.2
				c29.1-16.5,58.4-32.9,87.5-49.5C1227.7,576.8,1234.7,573.8,1234.9,562.1L1234.9,562.1z M713.2,1004.8
				c16.2-15,31.4-28.8,46.1-43.1c2.4-2.4,4.3-9,2.7-11.1c-3.5-4.7-7.8-1.3-11.3,2c-16.2,15-32.6,30-48.8,45
				c-9.4,8.7-8.9,11.7,2.4,17.3c78.2,39.2,156.6,78.2,234.8,117.3c2.9,1.5,5.9,3.2,9,3.6c2.1,0.2,5.8-1.3,6.3-2.9
				c0.7-2.2-0.2-5.6-1.7-7.6c-1.4-1.9-4.3-2.7-6.6-3.8c-33.8-16.9-67.5-33.8-101.3-50.7C801.4,1049.1,758.1,1027.4,713.2,1004.8
				L713.2,1004.8z M767.5,835.9c-2.8,1.8-5.4,3.1-7.6,4.9c-18.7,15.2-37.3,30.4-55.9,45.8c-7.9,6.5-7.3,11.6,2.1,15.8
				c79.6,36,159.3,71.9,239.2,107.5c2.9,1.3,9.4,0.6,10.7-1.5c3.1-4.7-0.6-7.9-5.5-10.1c-46.5-20.8-93.1-41.8-139.6-62.8
				c-27.2-12.3-54.6-24.5-81.8-36.8c-8.9-4-9.3-5.9-2.3-13.1c4.5-4.7,9.5-8.8,14.6-13c9.5-7.9,19.3-15.5,28.5-23.7
				c2-1.7,2.6-5.6,2.5-8.5C772.4,838.9,769.4,837.5,767.5,835.9L767.5,835.9z M702.9,755.5c-1.8,1.6-4.7,3.1-5.5,5.3
				c-0.6,1.7,1,4.9,2.5,6.6c1.7,1.7,4.5,2.4,6.9,3.5c67.6,29.6,135.1,59.2,202.7,88.8c11.3,4.9,22.5,10.2,34.1,14.6
				c2.5,1,6.1-1.2,9.3-1.8c-1.4-3.1-2.3-6.7-4.3-9.4c-1.2-1.6-4-2.1-6.1-3c-77.4-33.9-154.8-67.7-232.2-101.7
				C708.2,757.6,706.1,756.8,702.9,755.5L702.9,755.5z M921,818.2c-1.3-3.3-2.2-4.5-2.2-5.6c-1.7-29.5-3.5-58.9-4.3-88.5
				c-0.1-3.6,4.7-8.3,8.4-10.6c4.8-3.1,11-3.8,16.2-6.4c2.1-1,4-4.2,4.2-6.5c0.1-1.6-2.6-4.5-4.6-5c-11.6-3-34.8,11.6-36.4,23.6
				c-1.5,11.6-2.4,23.4-1.8,35c1.1,20.1,2.9,40.2,5.8,60.1c2.5,16.9,11.7,20.4,26.3,11.1c5.4-3.5,10.5-7.7,15.4-11.9
				c3.4-2.9,7.9-7,2.8-11.1c-2.1-1.7-8.2-0.3-11.3,1.6C933.1,807.8,927.7,812.9,921,818.2L921,818.2z M1068.4,703.4
				c0.4-13.4-11.1-19.9-20.8-13.9c-10.3,6.2-20.2,13.1-29.9,20.2c-6.8,5-8.2,13.2-3.6,18.8c5.2,6.4,11.6,8.1,18.9,3.3
				c9.8-6.5,19.6-12.8,29-19.9C1065.2,709.4,1067.1,705.1,1068.4,703.4L1068.4,703.4z M1114.6,745.7c-1.7-2-3.6-5.5-4.7-5.3
				c-3.4,0.7-7.6,2-9.6,4.6c-16.9,21.9-33.6,44-49.8,66.3c-2,2.8-2.9,9.7-1,11.4c5.1,5,8.4-0.3,11.4-4.2
				c16.4-21.8,33-43.6,49.3-65.5C1111.7,751.1,1112.8,748.8,1114.6,745.7L1114.6,745.7z M1107.5,701.3c-1.5-1.9-2.9-5.2-4.1-5
				c-2.8,0.2-6.4,1.2-8.1,3.2c-11.2,13.9-22.2,27.9-32.7,42.4c-2,2.6-3.1,8.8-1.5,10.5c4.5,5,7.9,0.1,10.7-3.5
				c10.8-13.8,21.5-27.7,32.1-41.6C1105.2,705.6,1106.2,703.5,1107.5,701.3L1107.5,701.3z"/>
			<path class="st1" d="M394.2,829.5c84.1-1.8,167.4-3.6,253.5-5.6c0,16.8-0.3,33,0.1,49.2c1,46.2,2.6,92.4,3.6,138.5
				c0.3,13.9-0.2,13.9-13.9,14.1c-72.3,1.4-144.6,2.9-216.9,4.3c-21.3,0.3-18.7,1.2-19.4-17.8c-2.4-58.9-4.8-117.8-7.2-176.6
				C393.8,834,394,832.4,394.2,829.5L394.2,829.5z"/>
			<path class="st1" d="M644.9,767.4v36.7c-83.1,1.8-166.6,3.7-250.8,5.5v-35.3C477.5,772.1,560.7,769.8,644.9,767.4L644.9,767.4z"
				/>
			<path class="st2" d="M1234.9,562.1c-0.2,11.7-7.2,14.7-13.3,18.3c-29.1,16.6-58.3,33-87.5,49.5c-41.3,23.4-82.6,46.8-124,70.2
				c-2.5,1.5-5.2,3-7.9,3.8c-7.3,2.2-12.7-0.6-16.3-7.2c-3.5-6.3-1.3-11.7,3.7-15.5c5.4-4.1,11.4-7.5,17.3-10.8
				c67.6-38.4,135.2-76.7,202.8-115c5.6-3.2,11.7-7.2,18-2.2C1231.4,555.8,1233.5,560.2,1234.9,562.1L1234.9,562.1z"/>
			<path class="st2" d="M713.2,1004.8c44.9,22.6,88.2,44.3,131.5,66.1c33.7,16.9,67.5,33.8,101.3,50.7c2.3,1.2,5.2,2,6.6,3.8
				c1.5,2,2.4,5.4,1.7,7.6c-0.5,1.5-4.2,3.1-6.3,2.9c-3.1-0.3-6.1-2.1-9-3.6c-78.3-39.1-156.6-78.2-234.8-117.3
				c-11.3-5.6-11.8-8.7-2.4-17.3c16.2-15,32.6-30,48.8-45c3.5-3.3,7.8-6.7,11.3-2c1.5,2-0.3,8.6-2.7,11.1
				C744.6,976.1,729.4,989.7,713.2,1004.8L713.2,1004.8z"/>
			<path class="st2" d="M767.5,835.9c2,1.7,4.9,3.1,4.9,4.5c0.1,2.9-0.6,6.8-2.5,8.5c-9.2,8.2-19,15.7-28.5,23.7
				c-5,4.2-10,8.4-14.6,13c-7,7.2-6.6,9.1,2.3,13.1c27.2,12.3,54.6,24.5,81.8,36.8c46.5,21,93,41.9,139.6,62.8
				c4.9,2.2,8.5,5.4,5.5,10.1c-1.3,2-7.8,2.8-10.7,1.5c-79.8-35.6-159.6-71.5-239.2-107.5c-9.4-4.3-10-9.3-2.1-15.8
				c18.5-15.4,37.2-30.6,55.9-45.8C762.1,839,764.7,837.7,767.5,835.9L767.5,835.9z"/>
			<path class="st2" d="M702.9,755.5c3.2,1.3,5.4,2,7.5,2.9c77.4,33.9,154.8,67.7,232.2,101.7c2.1,0.9,4.9,1.4,6.1,3
				c2,2.7,2.9,6.2,4.3,9.4c-3.1,0.7-6.8,2.8-9.3,1.8c-11.6-4.4-22.8-9.6-34.1-14.6c-67.6-29.6-135.2-59.2-202.7-88.8
				c-2.4-1-5.2-1.7-6.9-3.5c-1.6-1.6-3.1-4.8-2.5-6.6C698.1,758.6,701.1,757.1,702.9,755.5L702.9,755.5z"/>
			<path class="st0" d="M921,818.2c6.8-5.3,12.2-10.5,18.5-14.2c3.1-1.9,9.1-3.3,11.3-1.6c5.2,4,0.6,8.1-2.8,11.1
				c-4.9,4.3-10,8.4-15.4,11.9c-14.6,9.3-23.8,5.8-26.3-11.1c-2.9-19.9-4.7-40-5.8-60.1c-0.6-11.6,0.3-23.4,1.8-35
				c1.5-11.9,24.8-26.5,36.4-23.6c2,0.5,4.7,3.4,4.6,5c-0.1,2.3-2.1,5.5-4.2,6.5c-5.2,2.6-11.4,3.3-16.2,6.4
				c-3.7,2.3-8.5,7-8.4,10.6c0.8,29.5,2.7,59,4.3,88.5C918.9,813.9,919.7,815,921,818.2L921,818.2z"/>
			<path class="st2" d="M1068.4,703.4c-1.3,1.7-3.1,6.1-6.5,8.5c-9.3,7-19.2,13.4-29,19.9c-7.2,4.8-13.7,3.1-18.9-3.3
				c-4.6-5.6-3.3-13.8,3.6-18.8c9.7-7.1,19.6-14,29.9-20.2C1057.3,683.6,1068.7,690,1068.4,703.4L1068.4,703.4z"/>
			<path class="st2" d="M1114.6,745.7c-1.8,3.1-3,5.4-4.5,7.4c-16.4,21.9-32.9,43.7-49.3,65.5c-3,3.9-6.3,9.3-11.4,4.2
				c-1.8-1.8-1-8.6,1-11.4c16.2-22.4,33-44.5,49.8-66.3c2-2.6,6.2-3.9,9.6-4.6C1111.1,740.2,1113,743.8,1114.6,745.7L1114.6,745.7z"
				/>
			<path class="st2" d="M1107.5,701.3c-1.3,2.2-2.3,4.3-3.6,6c-10.7,13.9-21.3,27.8-32.1,41.6c-2.8,3.6-6.1,8.5-10.7,3.5
				c-1.6-1.7-0.4-7.9,1.5-10.5c10.5-14.4,21.5-28.5,32.7-42.4c1.7-2,5.3-3.1,8.1-3.2C1104.6,696.2,1106.1,699.4,1107.5,701.3
				L1107.5,701.3z"/>
		</g>
	</g>
	<line class="st3" x1="-880.8" y1="-38.3" x2="-887.4" y2="-41.5"/>
</g>
<g>
	<path class="st4" d="M2259.6,840.4c-0.5-11.9-1.2-22.1-1.3-32.3c-0.2-13.3,6.9-19.7,21.1-19.7c14.1,0,21.2,6.5,21.2,19.7
		c0,79.9,0.3,159.7-0.2,239.6c-0.1,22.8-3.7,45.2-12.5,66.6c-12.4,30.1-34.1,50.1-65.4,58.4c-38,10-75.9,8.7-112.9-5.4
		c-15.7-6-29.1-15.6-40-28.5c-7.9-9.4-7.3-20.6,1.6-28.5c9.6-8.6,23.1-8.6,30.9,0.4c22.2,25.9,50.7,34.2,83.8,30.9
		c14.9-1.5,29.2-4.5,41.6-13.5c16.4-11.9,23.9-29.1,27-48.1c2.4-14.9,2.6-30.1,3.9-45.2c0.5-6.7,1.1-13.4,0.7-20.6
		c-1.2,1.9-2.5,3.7-3.7,5.6c-16.6,26.4-40.2,41.7-71.4,44.8c-66.9,6.6-112.1-35.1-126.1-88.4c-11-41.7-9.1-83,7.8-122.8
		c16.5-39,46.2-62.2,88.9-67.6c26.5-3.3,51.7-0.3,74.1,15.7c11.8,8.4,20.7,19.4,27.5,32.1C2256.8,835.5,2257.9,837.3,2259.6,840.4z
		 M2259.4,924.8c0.3-17.3-2.4-34.1-8.5-50.2c-11.9-31.7-37.9-51.9-68.7-53.1c-35.4-1.4-62.8,16-75.8,49
		c-11.8,29.9-13.4,60.8-6.3,92.1c4.4,19.2,12.7,36.5,27.9,49.4c35.2,29.9,87,22.4,112.5-16.2C2254.9,974.3,2259.1,950,2259.4,924.8z
		"/>
	<path class="st4" d="M1413.6,886.1c0-54.3-0.3-108.7,0.2-163c0.1-16.7,5.2-32.1,22.2-39.2c8.1-3.3,17.4-5,26.1-5.1
		c66.1-0.4,132.2-0.2,198.2-0.2c8,0,15.3,2,19,9.9c4,8.5,4.1,17.5-1.7,24.9c-2.9,3.7-8.5,5.5-13.2,7.4c-2.4,1-5.4,0.2-8.1,0.2
		c-59.1,0-118.1,0-177.2,0c-14.1,0-19.6,5.5-19.6,19.3c0,32.7,0.2,65.4-0.2,98.2c-0.1,6.1,1.9,7.4,7.7,7.4
		c54.8-0.2,109.6-0.1,164.3-0.1c17.4,0,26.9,15.3,19.3,31.2c-3,6.3-8,9.9-15.1,10.1c-2.7,0.1-5.5,0.1-8.2,0.1
		c-53.2,0-106.4,0-159.7,0c-8.1,0-8.2,0-8.2,8c0,50.6-0.1,101.3,0.1,151.9c0,9.2-2.5,16.8-11.7,20.1c-10.2,3.7-20.5,3.9-29-3.9
		c-2.8-2.6-4-7.3-5.2-11.3c-0.8-2.5-0.3-5.4-0.3-8.1c0-52.6,0-105.2,0-157.8C1413.5,886.1,1413.5,886.1,1413.6,886.1z"/>
	<path class="st4" d="M2490.5,1074.2c-36.8,0.2-68.4-10.1-93.5-36.3c-18-18.8-28.2-41.9-33.1-67.2c-6.5-33.4-6.3-67,4.3-99.7
		c14.7-45.5,44.6-75.4,92.5-84.2c40.6-7.5,78.8-1.5,111,26.8c19.4,17,30.8,38.9,36.9,63.6c10.3,41.6,9.2,82.8-7,122.9
		C2583.4,1045,2543.2,1075.2,2490.5,1074.2z M2404.6,928.7c0.3,18.5,2.4,35.8,8.2,52.5c14.8,42.5,49.3,62.8,93.1,53.8
		c29.6-6.1,47.1-26.1,56.2-53.7c9.8-29.8,10.5-60.2,4-90.8c-4.1-19.4-11.9-37.1-26.8-50.6c-33.4-30.1-90-22.5-115.3,15.4
		C2408.9,877.7,2405.3,903.3,2404.6,928.7z"/>
	<path class="st4" d="M1782.3,835.6c6.2-8.1,12.7-18.3,20.9-26.9c13.5-14.1,30.7-21,50.3-22.9c11.8-1.1,23.2-0.8,34.7,1.6
		c12.3,2.6,17.1,9.2,15.7,21.7c-0.3,2.5-1,5-1.7,7.4c-4,13.2-12.3,17.9-25.8,15c-13.3-2.8-26.6-3.6-39.7,1.1
		c-18.4,6.5-30.6,20.2-40.4,36.3c-9.1,15-12.9,31.4-12.8,48.9c0.2,44.2,0.1,88.4,0,132.6c0,10.2-6.8,17.5-17.1,18.8
		c-14.1,1.7-24.3-3.3-27-13.6c-0.5-2-0.7-4.2-0.7-6.3c0-80.4,0-160.8,0-241.3c0-11.8,7.2-19.3,19.2-19.5c4.4-0.1,9,0.1,13.2,1.3
		c8.2,2.4,12.5,8.5,12.3,17.1C1783.3,817,1782.7,827.2,1782.3,835.6z"/>
	<path class="st4" d="M1991.8,928.7c0,39.9,0,79.9,0,119.8c0,10.3-3.4,16-11.3,19.1c-9.9,3.9-23.7,2.5-28.2-4.5
		c-3.1-4.9-4.9-11.5-4.9-17.4c-0.4-58.4-0.2-116.9-0.2-175.3c0-19.7,0-39.4,0-59c0-8.2,0.9-16.5,9.4-20.5c9.1-4.2,18.6-4,27.5,1
		c5.9,3.4,7.9,9.1,7.9,15.9C1991.7,848,1991.8,888.4,1991.8,928.7z"/>
	<path class="st4" d="M1936.5,708.1c0.1-18.1,14.8-32.8,33.2-33c18-0.2,33.3,14.9,33.3,32.9c0.1,18.7-14.7,33.8-33,33.9
		C1951.2,742,1936.4,727,1936.5,708.1z"/>
</g>
</svg>
