<?xml version="1.0" encoding="utf-8"?>
<!-- Generator: Adobe Illustrator 26.1.0, SVG Export Plug-In . SVG Version: 6.00 Build 0)  -->
<svg version="1.1" id="Layer_1" xmlns="http://www.w3.org/2000/svg" xmlns:xlink="http://www.w3.org/1999/xlink" x="0px" y="0px"
	 viewBox="0 0 2826.5 1518.1" style="enable-background:new 0 0 2826.5 1518.1;" xml:space="preserve">
<style type="text/css">
	.st0{fill:#F7931E;}
	.st1{fill:#F2F2F2;}
	.st2{fill:#FBB03B;}
	.st3{fill:none;}
	.st4{fill:#F7621E;}
</style>
<g id="a">
</g>
<g id="b">
	<g id="c">
		<g>
			<path class="st0" d="M637.6,730.3c0.4-13.4,1-26,1.1-38.7c0.4-41.6,1-83.2,1.1-124.8c0-21.9,12.5-35.5,30.6-43.6
				c73.9-33.1,148.2-65.3,222.1-98.3c41.4-18.4,82.4-19.7,125-3c71.2,27.8,142.3,55.8,210.3,90.9c11.2,5.8,21.7,13.3,31.3,21.4
				c19.7,16.6,29.8,38,30.2,64.1c1.2,75.5,3.6,151.1,4,226.6c0.4,69.1-0.8,138.1-1.9,207.2c-0.4,27.4-11.8,51.1-31.8,69.1
				c-10,9-24.2,13.3-36.7,19.2c-41,19.4-82.1,38.7-123.2,58c-30.4,14.3-60.6,29.2-91.3,42.7c-20.2,8.9-41.4,9.3-61.3-1.3
				c-63.2-33.5-126.3-66.8-188.9-101.3c-33.9-18.7-66.5-39.7-99.8-59.3c-3.4-2-7.9-3-11.9-3.1c-73.7-0.7-147.3-1.1-221-1.7
				c-10.7-0.1-21.5-0.7-32.2-1.3c-25.1-1.7-38.8-15.3-38.9-40.5c-0.5-80.8-0.2-161.6-1-242.3c-0.2-22.8,12.7-40.3,40.8-40.5
				c33.5-0.2,67.2-0.9,100.7-0.7c45,0.2,90,1.1,135,1.7C632.8,730.7,635.6,730.5,637.6,730.3L637.6,730.3z M693,553.3
				c4.1,2.1,5.8,3,7.6,3.9c86.1,40,172.1,80,258.2,120c11.3,5.2,15.3,12.7,11.2,21.2c-4.1,8.4-12.1,10-23.6,4.6
				c-72.6-33.7-145.1-67.6-217.6-101.2c-18.2-8.4-36.4-16.8-55.3-25.4c-0.4,12.7-1,24.3-1,36c-0.4,135.5-0.8,271.1-0.8,406.6
				c0,4.3,3,10.1,6.4,12.7c8.9,7,18.5,13.3,28.5,18.8c77.5,42.6,155.3,85,232.9,127.4c4.5,2.4,9.1,4.6,14.7,7.4
				c0.1-2.9,0.2-4.5,0.2-6.1c-0.6-43.7-1.3-87.3-2-130.9c-1.2-84-2.6-168.1-3.7-252.1c-0.3-21.8-0.5-43.7-0.5-65.5
				c0-10.6,5.7-16.6,15-16.5c9.2,0,14.5,5.8,15,16.6c0.3,4.9,0.5,9.8,0.5,14.7c1.1,71,2.2,142,3.2,213c0.7,48.5,1.3,97.1,2,145.6
				c0.4,29.3,1,58.6,1.6,89.3c4.3-1.2,8-1.7,11.3-3.2c76.3-35.8,152.4-71.8,228.6-107.7c4.2-2,9.5-3.2,12.6-6.4
				c12.2-12.9,19.8-28.2,20-46.4c0.3-23.1,0.2-46.3,0.5-69.4c1.4-118.9,3.2-237.7-2.2-356.6c-1.1-23.9-11.3-40-29.7-52.6
				c-6.7-4.6-13.7-9-21.2-12.2c-68.7-29.4-137.5-58.7-206.5-87.5c-28.5-11.9-57.3-10.6-85.5,1.8c-67.7,29.6-135.3,59.3-202.7,89.2
				C704.9,544.6,699.9,548.8,693,553.3L693,553.3z M386.7,818.4c-0.2,2.8-0.6,4.4-0.5,6c0.6,58.9,1.2,117.8,1.7,176.8
				c0.2,19-2.4,18.2,18.8,18.4c72.3,0.9,144.7,1.7,216.9,2.4c13.8,0.1,14.3,0.2,14.4-13.6c0.4-46.2,0.3-92.4,0.7-138.6
				c0.2-16.2,0.9-32.4,1.4-49.2C554.2,820,470.9,819.2,386.7,818.4L386.7,818.4z M639.2,764c-84.3-0.2-167.4-0.5-250.9-0.8
				l-1.1,35.2c84.2,0.7,167.7,1.5,250.8,2.2L639.2,764L639.2,764z"/>
			<path class="st1" d="M693,553.3c7-4.5,12-8.7,17.7-11.2c67.5-29.8,135.1-59.6,202.7-89.2c28.1-12.3,57-13.6,85.5-1.8
				c69,28.8,137.8,58.1,206.5,87.5c7.4,3.2,14.5,7.6,21.2,12.2c18.4,12.6,28.7,28.8,29.7,52.6c5.5,118.9,3.7,237.8,2.2,356.6
				c-0.3,23.1-0.2,46.3-0.5,69.4c-0.2,18.2-7.8,33.5-20,46.4c-3,3.3-8.3,4.3-12.6,6.4c-76.2,35.9-152.4,71.8-228.6,107.7
				c-3.3,1.5-7,2-11.3,3.2c-0.5-30.8-1.1-60.1-1.6-89.3c-0.7-48.5-1.3-97.1-2-145.6c-1-71-2.1-142-3.2-213
				c-0.1-4.9-0.3-9.8-0.5-14.7c-0.5-10.8-5.8-16.6-15-16.6c-9.3,0-15,5.9-15,16.5c0,21.8,0.1,43.6,0.5,65.5
				c1.2,84,2.5,168.1,3.7,252.1c0.7,43.7,1.3,87.3,2,130.9c0,1.5-0.1,3.1-0.2,6.1c-5.6-2.8-10.2-5-14.7-7.4
				c-77.7-42.4-155.3-84.7-232.9-127.4c-9.9-5.5-19.6-11.8-28.5-18.8c-3.4-2.7-6.4-8.4-6.4-12.7c0-135.5,0.3-271.1,0.8-406.6
				c0-11.6,0.6-23.3,1-36c18.8,8.7,37,17,55.3,25.4C801.4,635.3,874,669,946.6,702.8c11.5,5.4,19.5,3.8,23.6-4.6
				c4.1-8.4,0.1-15.9-11.2-21.2c-86.2-39.9-172.2-79.8-258.3-119.9C698.9,556.3,697.2,555.4,693,553.3L693,553.3z M1235.3,577.1
				c-1.3-1.9-3.4-6.4-6.8-9.3c-6.1-5.2-12.3-1.4-18,1.7c-68.8,36.2-137.5,72.4-206.3,108.7c-6,3.2-12.2,6.3-17.7,10.3
				c-5.1,3.7-7.5,9-4.2,15.4c3.4,6.7,8.7,9.6,16.1,7.7c2.8-0.7,5.4-2.2,8-3.6c42-22.1,84-44.3,126.1-66.3
				c29.6-15.6,59.4-31.1,89-46.7C1227.6,591.6,1234.7,588.7,1235.3,577.1L1235.3,577.1z M700.1,1003.5
				c16.7-14.5,32.3-27.8,47.4-41.6c2.5-2.3,4.5-8.9,3.1-11c-3.3-4.8-7.8-1.6-11.3,1.6C722.5,967,705.7,981.4,689,996
				c-9.7,8.4-9.3,11.4,1.8,17.4c77,41.6,154.1,83,231.1,124.5c2.9,1.6,5.8,3.4,8.9,3.8c2.1,0.3,5.8-1.1,6.4-2.7
				c0.8-2.2,0-5.6-1.4-7.6c-1.3-1.9-4.2-2.8-6.5-4c-33.3-18-66.4-35.9-99.7-53.8C786.9,1050.5,744.4,1027.4,700.1,1003.5
				L700.1,1003.5z M759.6,836.3c-2.8,1.7-5.5,3-7.7,4.7c-19.1,14.6-38.3,29.3-57.3,44c-8.1,6.3-7.7,11.3,1.6,15.9
				c78.5,38.4,157.1,76.8,235.8,114.8c2.9,1.4,9.4,0.8,10.8-1.1c3.2-4.6-0.4-8-5.2-10.3c-45.9-22.3-91.8-44.7-137.6-67.1
				c-26.9-13.1-53.8-26.2-80.6-39.3c-8.8-4.3-9.1-6.2-1.9-13.2c4.7-4.5,9.8-8.6,15-12.6c9.7-7.6,19.8-14.9,29.2-22.8
				c2-1.7,2.8-5.6,2.8-8.4C764.4,839.5,761.5,838,759.6,836.3L759.6,836.3z M697.5,754c-1.9,1.5-4.8,2.9-5.7,5.1
				c-0.7,1.7,0.8,5,2.3,6.7c1.6,1.8,4.5,2.6,6.8,3.7c66.6,31.7,133.2,63.4,199.8,95c11.1,5.3,22.2,10.9,33.6,15.6
				c2.5,1.1,6.2-1,9.3-1.5c-1.3-3.2-2.1-6.8-4-9.5c-1.1-1.6-3.9-2.2-6-3.2c-76.3-36.2-152.7-72.5-229-108.8
				C702.8,756.2,700.7,755.3,697.5,754L697.5,754z M913.6,823.4c-1.2-3.3-2-4.5-2-5.7c-0.8-29.5-1.7-59-1.6-88.6
				c0-3.6,4.9-8.1,8.7-10.3c4.9-2.9,11.1-3.5,16.4-5.9c2.1-1,4.1-4.1,4.4-6.4c0.2-1.6-2.5-4.5-4.4-5.2
				c-11.5-3.4-35.2,10.6-37.1,22.4c-1.8,11.5-3.2,23.3-2.9,34.9c0.5,20.1,1.6,40.3,3.9,60.3c2,17,11.1,20.8,25.9,11.9
				c5.5-3.3,10.7-7.4,15.8-11.4c3.5-2.8,8.2-6.7,3.1-11c-2-1.7-8.1-0.5-11.3,1.3C926.1,813.3,920.5,818.3,913.6,823.4L913.6,823.4z
				 M1064.5,713.2c0.8-13.4-10.5-20.2-20.4-14.6c-10.5,5.9-20.6,12.5-30.5,19.3c-7,4.8-8.6,12.9-4.1,18.7c5,6.6,11.4,8.4,18.8,3.9
				c9.9-6.2,20-12.2,29.6-19C1061.1,719.1,1063.2,714.8,1064.5,713.2L1064.5,713.2z M1109.4,756.9c-1.6-2.1-3.5-5.6-4.6-5.4
				c-3.4,0.6-7.7,1.8-9.8,4.3c-17.6,21.3-34.9,42.9-51.8,64.8c-2.1,2.7-3.2,9.6-1.4,11.4c4.9,5.2,8.4,0,11.5-3.8
				c17.1-21.3,34.3-42.6,51.3-63.9C1106.2,762.1,1107.5,759.9,1109.4,756.9L1109.4,756.9z M1103.7,712.3c-1.4-1.9-2.8-5.2-4-5.1
				c-2.8,0.1-6.4,1-8.2,3c-11.6,13.5-23.1,27.2-34,41.3c-2,2.6-3.4,8.7-1.9,10.5c4.4,5.2,7.9,0.3,10.8-3.2
				c11.2-13.5,22.3-27.1,33.4-40.6C1101.2,716.5,1102.3,714.4,1103.7,712.3L1103.7,712.3z"/>
			<path class="st1" d="M386.7,818.4c84.1,0.8,167.4,1.5,253.5,2.2c-0.5,16.8-1.4,33-1.4,49.2c-0.4,46.2-0.3,92.4-0.7,138.6
				c-0.1,13.9-0.6,13.9-14.4,13.6c-72.3-0.8-144.7-1.5-216.9-2.4c-21.3-0.3-18.7,0.6-18.8-18.4c-0.6-58.9-1.2-117.8-1.7-176.8
				C386.2,822.9,386.4,821.3,386.7,818.4L386.7,818.4z"/>
			<path class="st1" d="M639.2,764l-1.1,36.7c-83.1-0.8-166.6-1.4-250.8-2.2l1.1-35.2C471.8,763.6,554.9,763.8,639.2,764L639.2,764z
				"/>
			<path class="st2" d="M1235.3,577.1c-0.6,11.7-7.6,14.5-13.9,17.8c-29.6,15.7-59.3,31.1-89,46.7c-42,22.1-84,44.3-126.1,66.3
				c-2.6,1.4-5.2,2.8-8,3.6c-7.4,1.9-12.7-1-16.1-7.7c-3.3-6.4-1-11.7,4.2-15.4c5.5-3.9,11.7-7.1,17.7-10.3
				c68.7-36.3,137.5-72.5,206.3-108.7c5.7-3,11.9-6.9,18-1.7C1231.9,570.7,1233.9,575.2,1235.3,577.1L1235.3,577.1z"/>
			<path class="st2" d="M700.1,1003.5c44.2,24,86.8,47,129.4,70.1c33.2,18,66.4,35.9,99.7,53.8c2.3,1.3,5.2,2.1,6.5,4
				c1.4,2,2.2,5.4,1.4,7.6c-0.5,1.5-4.3,3-6.4,2.7c-3.1-0.4-6-2.3-8.9-3.8c-77.1-41.5-154.1-83-231.1-124.5
				c-11.1-6-11.5-9.1-1.8-17.4c16.7-14.5,33.5-28.9,50.2-43.5c3.6-3.2,8-6.4,11.3-1.6c1.4,2.1-0.5,8.6-3.1,11
				C732.4,975.7,716.8,988.9,700.1,1003.5L700.1,1003.5z"/>
			<path class="st2" d="M759.6,836.3c1.9,1.7,4.8,3.2,4.8,4.7c0,2.9-0.8,6.8-2.8,8.4c-9.4,7.9-19.5,15.2-29.2,22.8
				c-5.1,4-10.3,8-15,12.6c-7.3,7-6.9,8.8,1.9,13.2c26.8,13.2,53.8,26.2,80.6,39.3c45.9,22.4,91.7,44.8,137.6,67.1
				c4.8,2.3,8.3,5.6,5.2,10.3c-1.4,2-7.9,2.5-10.8,1.1c-78.7-38-157.3-76.4-235.8-114.8c-9.3-4.5-9.7-9.6-1.6-15.9
				c19-14.8,38.1-29.4,57.3-44C754.1,839.3,756.8,838,759.6,836.3L759.6,836.3z"/>
			<path class="st2" d="M697.5,754c3.2,1.4,5.3,2.2,7.4,3.2c76.3,36.2,152.7,72.5,229,108.8c2.1,1,4.8,1.5,6,3.2
				c1.9,2.8,2.7,6.3,4,9.5c-3.2,0.6-6.8,2.6-9.3,1.5c-11.4-4.7-22.5-10.3-33.6-15.6c-66.6-31.7-133.3-63.4-199.8-95
				c-2.3-1.1-5.1-1.9-6.8-3.7c-1.6-1.7-3-4.9-2.3-6.7C692.6,756.9,695.7,755.5,697.5,754L697.5,754z"/>
			<path class="st0" d="M913.6,823.4c6.9-5.1,12.5-10.1,18.9-13.6c3.2-1.8,9.2-3,11.3-1.3c5,4.2,0.4,8.1-3.1,11
				c-5.1,4.1-10.2,8.1-15.8,11.4c-14.8,8.8-23.9,5-25.9-11.9c-2.3-20-3.4-40.1-3.9-60.3c-0.3-11.6,1-23.4,2.9-34.9
				c1.9-11.9,25.6-25.8,37.1-22.4c1.9,0.5,4.6,3.6,4.4,5.2c-0.2,2.3-2.3,5.4-4.4,6.4c-5.3,2.4-11.5,3-16.4,5.9
				c-3.8,2.2-8.7,6.8-8.7,10.3c-0.1,29.5,0.9,59.1,1.6,88.6C911.6,818.9,912.4,820.2,913.6,823.4L913.6,823.4z"/>
			<path class="st2" d="M1064.5,713.2c-1.3,1.6-3.3,6-6.7,8.3c-9.5,6.7-19.6,12.8-29.6,19c-7.4,4.6-13.8,2.7-18.8-3.9
				c-4.4-5.8-2.8-13.9,4.1-18.7c9.9-6.8,20-13.4,30.5-19.3C1054,693,1065.2,699.8,1064.5,713.2L1064.5,713.2z"/>
			<path class="st2" d="M1109.4,756.9c-1.9,3-3.2,5.3-4.8,7.2c-17.1,21.4-34.2,42.7-51.3,63.9c-3.1,3.8-6.6,9.1-11.5,3.8
				c-1.8-1.9-0.7-8.7,1.4-11.4c16.9-21.9,34.3-43.4,51.8-64.8c2-2.5,6.3-3.7,9.8-4.3C1106,751.3,1107.8,754.9,1109.4,756.9
				L1109.4,756.9z"/>
			<path class="st2" d="M1103.7,712.3c-1.4,2.2-2.4,4.2-3.8,5.9c-11.1,13.6-22.2,27.1-33.4,40.6c-2.9,3.5-6.4,8.3-10.8,3.2
				c-1.5-1.8-0.2-7.9,1.9-10.5c11-14.1,22.4-27.8,34-41.3c1.7-2,5.4-2.9,8.2-3C1100.9,707.1,1102.3,710.4,1103.7,712.3L1103.7,712.3
				z"/>
		</g>
	</g>
	<line class="st3" x1="-861" y1="-88.3" x2="-867.4" y2="-91.7"/>
</g>
<g>
	<path class="st4" d="M2259.6,840.4c-0.5-11.9-1.2-22.1-1.3-32.3c-0.2-13.3,6.9-19.7,21.1-19.7c14.1,0,21.2,6.5,21.2,19.7
		c0,79.9,0.3,159.7-0.2,239.6c-0.1,22.8-3.7,45.2-12.5,66.6c-12.4,30.1-34.1,50.1-65.4,58.4c-38,10-75.9,8.7-112.9-5.4
		c-15.7-6-29.1-15.6-40-28.5c-7.9-9.4-7.3-20.6,1.6-28.5c9.6-8.6,23.1-8.6,30.9,0.4c22.2,25.9,50.7,34.2,83.8,30.9
		c14.9-1.5,29.2-4.5,41.6-13.5c16.4-11.9,23.9-29.1,27-48.1c2.4-14.9,2.6-30.1,3.9-45.2c0.5-6.7,1.1-13.4,0.7-20.6
		c-1.2,1.9-2.5,3.7-3.7,5.6c-16.6,26.4-40.2,41.7-71.4,44.8c-66.9,6.6-112.1-35.1-126.1-88.4c-11-41.7-9.1-83,7.8-122.8
		c16.5-39,46.2-62.2,88.9-67.6c26.5-3.3,51.7-0.3,74.1,15.7c11.8,8.4,20.7,19.4,27.5,32.1C2256.8,835.5,2257.9,837.3,2259.6,840.4z
		 M2259.4,924.8c0.3-17.3-2.4-34.1-8.5-50.2c-11.9-31.7-37.9-51.9-68.7-53.1c-35.4-1.4-62.8,16-75.8,49
		c-11.8,29.9-13.4,60.8-6.3,92.1c4.4,19.2,12.7,36.5,27.9,49.4c35.2,29.9,87,22.4,112.5-16.2C2254.9,974.3,2259.1,950,2259.4,924.8z
		"/>
	<path class="st4" d="M1413.6,886.1c0-54.3-0.3-108.7,0.2-163c0.1-16.7,5.2-32.1,22.2-39.2c8.1-3.3,17.4-5,26.1-5.1
		c66.1-0.4,132.2-0.2,198.2-0.2c8,0,15.3,2,19,9.9c4,8.5,4.1,17.5-1.7,24.9c-2.9,3.7-8.5,5.5-13.2,7.4c-2.4,1-5.4,0.2-8.1,0.2
		c-59.1,0-118.1,0-177.2,0c-14.1,0-19.6,5.5-19.6,19.3c0,32.7,0.2,65.4-0.2,98.2c-0.1,6.1,1.9,7.4,7.7,7.4
		c54.8-0.2,109.6-0.1,164.3-0.1c17.4,0,26.9,15.3,19.3,31.2c-3,6.3-8,9.9-15.1,10.1c-2.7,0.1-5.5,0.1-8.2,0.1
		c-53.2,0-106.4,0-159.7,0c-8.1,0-8.2,0-8.2,8c0,50.6-0.1,101.3,0.1,151.9c0,9.2-2.5,16.8-11.7,20.1c-10.2,3.7-20.5,3.9-29-3.9
		c-2.8-2.6-4-7.3-5.2-11.3c-0.8-2.5-0.3-5.4-0.3-8.1c0-52.6,0-105.2,0-157.8C1413.5,886.1,1413.5,886.1,1413.6,886.1z"/>
	<path class="st4" d="M2490.5,1074.2c-36.8,0.2-68.4-10.1-93.5-36.3c-18-18.8-28.2-41.9-33.1-67.2c-6.5-33.4-6.3-67,4.3-99.7
		c14.7-45.5,44.6-75.4,92.5-84.2c40.6-7.5,78.8-1.5,111,26.8c19.4,17,30.8,38.9,36.9,63.6c10.3,41.6,9.2,82.8-7,122.9
		C2583.4,1045,2543.2,1075.2,2490.5,1074.2z M2404.6,928.7c0.3,18.5,2.4,35.8,8.2,52.5c14.8,42.5,49.3,62.8,93.1,53.8
		c29.6-6.1,47.1-26.1,56.2-53.7c9.8-29.8,10.5-60.2,4-90.8c-4.1-19.4-11.9-37.1-26.8-50.6c-33.4-30.1-90-22.5-115.3,15.4
		C2408.9,877.7,2405.3,903.3,2404.6,928.7z"/>
	<path class="st4" d="M1782.3,835.6c6.2-8.1,12.7-18.3,20.9-26.9c13.5-14.1,30.7-21,50.3-22.9c11.8-1.1,23.2-0.8,34.7,1.6
		c12.3,2.6,17.1,9.2,15.7,21.7c-0.3,2.5-1,5-1.7,7.4c-4,13.2-12.3,17.9-25.8,15c-13.3-2.8-26.6-3.6-39.7,1.1
		c-18.4,6.5-30.6,20.2-40.4,36.3c-9.1,15-12.9,31.4-12.8,48.9c0.2,44.2,0.1,88.4,0,132.6c0,10.2-6.8,17.5-17.1,18.8
		c-14.1,1.7-24.3-3.3-27-13.6c-0.5-2-0.7-4.2-0.7-6.3c0-80.4,0-160.8,0-241.3c0-11.8,7.2-19.3,19.2-19.5c4.4-0.1,9,0.1,13.2,1.3
		c8.2,2.4,12.5,8.5,12.3,17.1C1783.3,817,1782.7,827.2,1782.3,835.6z"/>
	<path class="st4" d="M1991.8,928.7c0,39.9,0,79.9,0,119.8c0,10.3-3.4,16-11.3,19.1c-9.9,3.9-23.7,2.5-28.2-4.5
		c-3.1-4.9-4.9-11.5-4.9-17.4c-0.4-58.4-0.2-116.9-0.2-175.3c0-19.7,0-39.4,0-59c0-8.2,0.9-16.5,9.4-20.5c9.1-4.2,18.6-4,27.5,1
		c5.9,3.4,7.9,9.1,7.9,15.9C1991.7,848,1991.8,888.4,1991.8,928.7z"/>
	<path class="st4" d="M1936.5,708.1c0.1-18.1,14.8-32.8,33.2-33c18-0.2,33.3,14.9,33.3,32.9c0.1,18.7-14.7,33.8-33,33.9
		C1951.2,742,1936.4,727,1936.5,708.1z"/>
</g>
</svg>
