<?xml version="1.0" encoding="utf-8"?>
<!-- Generator: Adobe Illustrator 26.1.0, SVG Export Plug-In . SVG Version: 6.00 Build 0)  -->
<svg version="1.1" id="Layer_1" xmlns="http://www.w3.org/2000/svg" xmlns:xlink="http://www.w3.org/1999/xlink" x="0px" y="0px"
	 viewBox="0 0 1366 768" style="enable-background:new 0 0 1366 768;" xml:space="preserve">
<style type="text/css">
	.st0{opacity:0.95;}
	.st1{fill:#FFFFFF;}
	.st2{fill:none;}
	.st3{opacity:0.75;}
</style>
<g id="b" class="st0">
	<g id="c">
		<g>
			<path class="st1" d="M211.1,385.26c0.23-7.63,0.57-14.81,0.63-22.04c0.23-23.69,0.57-47.38,0.63-71.07
				c0-12.47,7.12-20.22,17.43-24.83c42.09-18.85,84.4-37.19,126.49-55.98c23.58-10.48,46.93-11.22,71.19-1.71
				c40.55,15.83,81.04,31.78,119.77,51.77c6.38,3.3,12.36,7.57,17.83,12.19c11.22,9.45,16.97,21.64,17.2,36.51
				c0.68,43,2.05,86.05,2.28,129.05c0.23,39.35-0.46,78.65-1.08,118c-0.23,15.6-6.72,29.1-18.11,39.35
				c-5.7,5.13-13.78,7.57-20.9,10.93c-23.35,11.05-46.76,22.04-70.16,33.03c-17.31,8.14-34.51,16.63-52,24.32
				c-11.5,5.07-23.58,5.3-34.91-0.74c-35.99-19.08-71.93-38.04-107.58-57.69c-19.31-10.65-37.87-22.61-56.84-33.77
				c-1.94-1.14-4.5-1.71-6.78-1.77c-41.97-0.4-83.89-0.63-125.86-0.97c-6.09-0.06-12.24-0.4-18.34-0.74
				c-14.29-0.97-22.1-8.71-22.15-23.06c-0.28-46.02-0.11-92.03-0.57-137.99c-0.11-12.98,7.23-22.95,23.24-23.06
				c19.08-0.11,38.27-0.51,57.35-0.4c25.63,0.11,51.26,0.63,76.88,0.97C208.37,385.49,209.96,385.38,211.1,385.26L211.1,385.26z
				 M242.65,284.46c2.33,1.2,3.3,1.71,4.33,2.22c49.03,22.78,98.01,45.56,147.05,68.34c6.44,2.96,8.71,7.23,6.38,12.07
				c-2.33,4.78-6.89,5.7-13.44,2.62c-41.35-19.19-82.63-38.5-123.92-57.63c-10.36-4.78-20.73-9.57-31.49-14.47
				c-0.23,7.23-0.57,13.84-0.57,20.5c-0.23,77.17-0.46,154.39-0.46,231.56c0,2.45,1.71,5.75,3.64,7.23
				c5.07,3.99,10.54,7.57,16.23,10.71c44.14,24.26,88.44,48.41,132.64,72.55c2.56,1.37,5.18,2.62,8.37,4.21
				c0.06-1.65,0.11-2.56,0.11-3.47c-0.34-24.89-0.74-49.72-1.14-74.55c-0.68-47.84-1.48-95.73-2.11-143.57
				c-0.17-12.42-0.28-24.89-0.28-37.3c0-6.04,3.25-9.45,8.54-9.4c5.24,0,8.26,3.3,8.54,9.45c0.17,2.79,0.28,5.58,0.28,8.37
				c0.63,40.43,1.25,80.87,1.82,121.3c0.4,27.62,0.74,55.3,1.14,82.92c0.23,16.69,0.57,33.37,0.91,50.86
				c2.45-0.68,4.56-0.97,6.44-1.82c43.45-20.39,86.79-40.89,130.19-61.34c2.39-1.14,5.41-1.82,7.18-3.64
				c6.95-7.35,11.28-16.06,11.39-26.42c0.17-13.16,0.11-26.37,0.28-39.52c0.8-67.71,1.82-135.37-1.25-203.09
				c-0.63-13.61-6.44-22.78-16.91-29.96c-3.82-2.62-7.8-5.13-12.07-6.95c-39.12-16.74-78.31-33.43-117.6-49.83
				c-16.23-6.78-32.63-6.04-48.69,1.03c-38.56,16.86-77.05,33.77-115.44,50.8C249.43,279.51,246.58,281.9,242.65,284.46
				L242.65,284.46z M68.21,435.44c-0.11,1.59-0.34,2.51-0.28,3.42c0.34,33.54,0.68,67.09,0.97,100.69
				c0.11,10.82-1.37,10.36,10.71,10.48c41.18,0.51,82.41,0.97,123.53,1.37c7.86,0.06,8.14,0.11,8.2-7.75
				c0.23-26.31,0.17-52.62,0.4-78.93c0.11-9.23,0.51-18.45,0.8-28.02C163.61,436.35,116.17,435.89,68.21,435.44L68.21,435.44z
				 M212.01,404.45c-48.01-0.11-95.33-0.28-142.89-0.46l-0.63,20.05c47.95,0.4,95.51,0.85,142.83,1.25L212.01,404.45L212.01,404.45z
				"/>
			<path class="st1" d="M551.5,298.01c-0.34,6.66-4.33,8.26-7.92,10.14c-16.86,8.94-33.77,17.71-50.69,26.6
				c-23.92,12.59-47.84,25.23-71.81,37.76c-1.48,0.8-2.96,1.59-4.56,2.05c-4.21,1.08-7.23-0.57-9.17-4.39
				c-1.88-3.64-0.57-6.66,2.39-8.77c3.13-2.22,6.66-4.04,10.08-5.87c39.12-20.67,78.31-41.29,117.49-61.91
				c3.25-1.71,6.78-3.93,10.25-0.97C549.56,294.37,550.7,296.93,551.5,298.01L551.5,298.01z"/>
			<path class="st1" d="M246.7,540.85c25.17,13.67,49.43,26.77,73.69,39.92c18.91,10.25,37.82,20.45,56.78,30.64
				c1.31,0.74,2.96,1.2,3.7,2.28c0.8,1.14,1.25,3.08,0.8,4.33c-0.28,0.85-2.45,1.71-3.64,1.54c-1.77-0.23-3.42-1.31-5.07-2.16
				c-43.91-23.63-87.76-47.27-131.61-70.9c-6.32-3.42-6.55-5.18-1.03-9.91c9.51-8.26,19.08-16.46,28.59-24.77
				c2.05-1.82,4.56-3.64,6.44-0.91c0.8,1.2-0.28,4.9-1.77,6.26C265.09,525.02,256.21,532.54,246.7,540.85L246.7,540.85z"/>
			<path class="st1" d="M280.58,445.63c1.08,0.97,2.73,1.82,2.73,2.68c0,1.65-0.46,3.87-1.59,4.78c-5.35,4.5-11.11,8.66-16.63,12.98
				c-2.9,2.28-5.87,4.56-8.54,7.18c-4.16,3.99-3.93,5.01,1.08,7.52c15.26,7.52,30.64,14.92,45.9,22.38
				c26.14,12.76,52.22,25.51,78.36,38.21c2.73,1.31,4.73,3.19,2.96,5.87c-0.8,1.14-4.5,1.42-6.15,0.63
				c-44.82-21.64-89.58-43.51-134.29-65.38c-5.3-2.56-5.52-5.47-0.91-9.06c10.82-8.43,21.7-16.74,32.63-25.06
				C277.45,447.34,278.99,446.6,280.58,445.63L280.58,445.63z"/>
			<path class="st1" d="M245.22,398.76c1.82,0.8,3.02,1.25,4.21,1.82c43.45,20.62,86.96,41.29,130.42,61.96
				c1.2,0.57,2.73,0.85,3.42,1.82c1.08,1.59,1.54,3.59,2.28,5.41c-1.82,0.34-3.87,1.48-5.3,0.85c-6.49-2.68-12.81-5.87-19.14-8.88
				c-37.93-18.05-75.91-36.11-113.79-54.1c-1.31-0.63-2.9-1.08-3.87-2.11c-0.91-0.97-1.71-2.79-1.31-3.82
				C242.43,400.41,244.19,399.61,245.22,398.76L245.22,398.76z"/>
			<path class="st1" d="M368.29,438.28c3.93-2.9,7.12-5.75,10.76-7.75c1.82-1.03,5.24-1.71,6.44-0.74c2.85,2.39,0.23,4.61-1.77,6.26
				c-2.9,2.33-5.81,4.61-9,6.49c-8.43,5.01-13.61,2.85-14.75-6.78c-1.31-11.39-1.94-22.84-2.22-34.34
				c-0.17-6.61,0.57-13.33,1.65-19.88c1.08-6.78,14.58-14.69,21.13-12.76c1.08,0.28,2.62,2.05,2.51,2.96
				c-0.11,1.31-1.31,3.08-2.51,3.64c-3.02,1.37-6.55,1.71-9.34,3.36c-2.16,1.25-4.95,3.87-4.95,5.87
				c-0.06,16.8,0.51,33.66,0.91,50.46C367.15,435.72,367.6,436.46,368.29,438.28L368.29,438.28z"/>
			<path class="st1" d="M454.22,375.52c-0.74,0.91-1.88,3.42-3.82,4.73c-5.41,3.82-11.16,7.29-16.86,10.82
				c-4.21,2.62-7.86,1.54-10.71-2.22c-2.51-3.3-1.59-7.92,2.33-10.65c5.64-3.87,11.39-7.63,17.37-10.99
				C448.24,364.02,454.62,367.89,454.22,375.52L454.22,375.52z"/>
			<path class="st1" d="M479.8,400.41c-1.08,1.71-1.82,3.02-2.73,4.1c-9.74,12.19-19.48,24.32-29.22,36.39
				c-1.77,2.16-3.76,5.18-6.55,2.16c-1.03-1.08-0.4-4.95,0.8-6.49c9.62-12.47,19.53-24.72,29.5-36.9c1.14-1.42,3.59-2.11,5.58-2.45
				C477.86,397.22,478.88,399.27,479.8,400.41L479.8,400.41z"/>
			<path class="st1" d="M476.55,375.01c-0.8,1.25-1.37,2.39-2.16,3.36c-6.32,7.75-12.64,15.43-19.02,23.12
				c-1.65,1.99-3.64,4.73-6.15,1.82c-0.85-1.03-0.11-4.5,1.08-5.98c6.26-8.03,12.76-15.83,19.36-23.52
				c0.97-1.14,3.08-1.65,4.67-1.71C474.95,372.05,475.75,373.93,476.55,375.01L476.55,375.01z"/>
		</g>
	</g>
	<line class="st2" x1="-642.36" y1="-80.93" x2="-646" y2="-82.87"/>
</g>
<g class="st3">
	<path class="st1" d="M1134.84,447.96c-0.28-6.78-0.68-12.59-0.74-18.39c-0.11-7.57,3.93-11.22,12.02-11.22
		c8.03,0,12.07,3.7,12.07,11.22c0,45.5,0.17,90.95-0.11,136.45c-0.06,12.98-2.11,25.74-7.12,37.93
		c-7.06,17.14-19.42,28.53-37.25,33.26c-21.64,5.7-43.23,4.95-64.3-3.08c-8.94-3.42-16.57-8.88-22.78-16.23
		c-4.5-5.35-4.16-11.73,0.91-16.23c5.47-4.9,13.16-4.9,17.6,0.23c12.64,14.75,28.87,19.48,47.72,17.6
		c8.49-0.85,16.63-2.56,23.69-7.69c9.34-6.78,13.61-16.57,15.38-27.39c1.37-8.49,1.48-17.14,2.22-25.74
		c0.28-3.82,0.63-7.63,0.4-11.73c-0.68,1.08-1.42,2.11-2.11,3.19c-9.45,15.03-22.89,23.75-40.66,25.51
		c-38.1,3.76-63.84-19.99-71.81-50.34c-6.26-23.75-5.18-47.27,4.44-69.94c9.4-22.21,26.31-35.42,50.63-38.5
		c15.09-1.88,29.44-0.17,42.2,8.94c6.72,4.78,11.79,11.05,15.66,18.28C1133.24,445.17,1133.87,446.2,1134.84,447.96z
		 M1134.72,496.03c0.17-9.85-1.37-19.42-4.84-28.59c-6.78-18.05-21.58-29.56-39.12-30.24c-20.16-0.8-35.76,9.11-43.17,27.91
		c-6.72,17.03-7.63,34.63-3.59,52.45c2.51,10.93,7.23,20.79,15.89,28.13c20.05,17.03,49.55,12.76,64.07-9.23
		C1132.16,524.22,1134.55,510.38,1134.72,496.03z"/>
	<path class="st1" d="M653.04,473.99c0-30.92-0.17-61.91,0.11-92.83c0.06-9.51,2.96-18.28,12.64-22.32
		c4.61-1.88,9.91-2.85,14.86-2.9c37.64-0.23,75.29-0.11,112.88-0.11c4.56,0,8.71,1.14,10.82,5.64c2.28,4.84,2.33,9.97-0.97,14.18
		c-1.65,2.11-4.84,3.13-7.52,4.21c-1.37,0.57-3.08,0.11-4.61,0.11c-33.66,0-67.26,0-100.92,0c-8.03,0-11.16,3.13-11.16,10.99
		c0,18.62,0.11,37.25-0.11,55.93c-0.06,3.47,1.08,4.21,4.39,4.21c31.21-0.11,62.42-0.06,93.57-0.06c9.91,0,15.32,8.71,10.99,17.77
		c-1.71,3.59-4.56,5.64-8.6,5.75c-1.54,0.06-3.13,0.06-4.67,0.06c-30.3,0-60.6,0-90.95,0c-4.61,0-4.67,0-4.67,4.56
		c0,28.82-0.06,57.69,0.06,86.51c0,5.24-1.42,9.57-6.66,11.45c-5.81,2.11-11.67,2.22-16.52-2.22c-1.59-1.48-2.28-4.16-2.96-6.44
		c-0.46-1.42-0.17-3.08-0.17-4.61c0-29.96,0-59.91,0-89.87C652.98,473.99,652.98,473.99,653.04,473.99z"/>
	<path class="st1" d="M1266.34,581.11c-20.96,0.11-38.95-5.75-53.25-20.67c-10.25-10.71-16.06-23.86-18.85-38.27
		c-3.7-19.02-3.59-38.16,2.45-56.78c8.37-25.91,25.4-42.94,52.68-47.95c23.12-4.27,44.88-0.85,63.21,15.26
		c11.05,9.68,17.54,22.15,21.01,36.22c5.87,23.69,5.24,47.15-3.99,69.99C1319.24,564.49,1296.35,581.68,1266.34,581.11z
		 M1217.42,498.25c0.17,10.54,1.37,20.39,4.67,29.9c8.43,24.2,28.08,35.76,53.02,30.64c16.86-3.47,26.82-14.86,32.01-30.58
		c5.58-16.97,5.98-34.28,2.28-51.71c-2.34-11.05-6.78-21.13-15.26-28.82c-19.02-17.14-51.26-12.81-65.66,8.77
		C1219.87,469.21,1217.82,483.79,1217.42,498.25z"/>
	<path class="st1" d="M863.01,445.23c3.53-4.61,7.23-10.42,11.9-15.32c7.69-8.03,17.48-11.96,28.65-13.04
		c6.72-0.63,13.21-0.46,19.76,0.91c7,1.48,9.74,5.24,8.94,12.36c-0.17,1.42-0.57,2.85-0.97,4.21c-2.28,7.52-7,10.19-14.69,8.54
		c-7.57-1.59-15.15-2.05-22.61,0.63c-10.48,3.7-17.43,11.5-23.01,20.67c-5.18,8.54-7.35,17.88-7.29,27.85
		c0.11,25.17,0.06,50.34,0,75.52c0,5.81-3.87,9.97-9.74,10.71c-8.03,0.97-13.84-1.88-15.38-7.75c-0.28-1.14-0.4-2.39-0.4-3.59
		c0-45.79,0-91.58,0-137.42c0-6.72,4.1-10.99,10.93-11.11c2.51-0.06,5.13,0.06,7.52,0.74c4.67,1.37,7.12,4.84,7,9.74
		C863.58,434.64,863.24,440.45,863.01,445.23z"/>
	<path class="st1" d="M982.33,498.25c0,22.72,0,45.5,0,68.23c0,5.87-1.94,9.11-6.44,10.88c-5.64,2.22-13.5,1.42-16.06-2.56
		c-1.77-2.79-2.79-6.55-2.79-9.91c-0.23-33.26-0.11-66.58-0.11-99.83c0-11.22,0-22.44,0-33.6c0-4.67,0.51-9.4,5.35-11.67
		c5.18-2.39,10.59-2.28,15.66,0.57c3.36,1.94,4.5,5.18,4.5,9.06C982.27,452.29,982.33,475.3,982.33,498.25z"/>
	<path class="st1" d="M950.83,372.62c0.06-10.31,8.43-18.68,18.91-18.79c10.25-0.11,18.96,8.49,18.96,18.74
		c0.06,10.65-8.37,19.25-18.79,19.31C959.2,391.93,950.77,383.38,950.83,372.62z"/>
</g>
</svg>
