<?xml version="1.0" encoding="utf-8"?>
<!-- Generator: Adobe Illustrator 26.1.0, SVG Export Plug-In . SVG Version: 6.00 Build 0)  -->
<svg version="1.1" id="Layer_1" xmlns="http://www.w3.org/2000/svg" xmlns:xlink="http://www.w3.org/1999/xlink" x="0px" y="0px"
	 viewBox="0 0 1028 1028" style="enable-background:new 0 0 1028 1028;" xml:space="preserve">
<style type="text/css">
	.st0{fill:#F9E381;}
	.st1{fill:#FF6633;}
	.st2{fill:#FFFFFF;}
</style>
<g id="a">
	<circle class="st0" cx="514" cy="514" r="514"/>
</g>
<g id="b">
	<g>
		<path class="st1" d="M873.5,564.2c0.7,61.1,2.4,122.1,1.6,183.2c-0.5,37-16.4,68.4-44.6,93c-2.3,2-5.1,3.4-7.9,4.8
			c-58.4,29-116.8,58-175.2,87c-23.1,11.5-45.9,23.8-69.5,34.3c-28.4,12.6-57.6,13.6-86-0.6c-61.3-30.7-122.6-61.3-183.3-93.2
			c-37.6-19.7-74.3-41.2-111.1-62.5c-18.6-10.7-31.6-26.3-35.5-48.1c-0.7-4.1-1.4-8.4-1.5-12.6c-1.3-71.4-2.6-142.9-3.7-214.3
			c-0.8-49.3-1.4-98.6-2.1-147.9c-0.2-15-0.5-30-0.7-45c-0.3-19.4-1.2-38.8-0.8-58.1c0.7-31.2,18.7-51.5,45.1-64.4
			c50.1-24.6,100.5-48.3,151-71.9c27.2-12.7,54.7-24.6,82.2-36.7c41.5-18.2,83.6-20,126.6-5.2c76.4,26.2,151.6,55.5,224.6,90.1
			c17,8.1,32.5,18.3,46.1,31.4c21.4,20.7,32.5,45.8,34.9,75.7c5.7,72.8,7.1,145.8,8.8,218.8c0.3,14-0.2,28.1-0.3,42.2L873.5,564.2
			L873.5,564.2z M452.1,419.2c-70.2-30.9-140-61.6-210.7-92.7c2,98.8,3.9,196.2,5.9,294.9c3-2.3,4.9-3.8,6.9-5.3
			c18.6-14.7,37-29.5,55.7-44c9.4-7.2,19.8-5.8,26.3,2.8c6,8.1,4.2,19.3-4.3,26.1c-13.1,10.5-26.1,20.9-39.3,31.4
			c-1.2,0.9-2.6,1.5-4.8,2.8c73.2,33.8,144.5,66.8,216.4,100c-0.8-20.9-1.5-40.9-2.2-60.9c-1.5-42.3-3.1-84.7-4.6-127.1
			c-1-29.3-2.3-58.5-2.9-87.8c-0.4-17.7,13.9-31.7,31.3-32.1c17.2-0.4,31.6,13.4,32.3,31.1c2.2,59.1,4.3,118.2,6.5,177.3
			c2.5,68.1,4.9,136.3,7.4,204.4c0.4,9.7,0.8,19.5,1.3,30c2.9-1.3,4.9-2.2,6.9-3.2c34.4-17.1,68.8-34.3,103.3-51.3
			c28.2-14,56.4-28,84.9-41.4c13.1-6.2,18.4-16.9,18.5-29.9c0.1-40.9-0.3-81.7-0.9-122.5c-0.7-47.8-1.3-95.6-2.6-143.3
			c-1.4-48.9-3.7-97.8-5.7-146.7c-0.2-5.4-1-10.9-1.6-16.9c-22.9,12.7-45,24.9-67,37.1c-41.2,22.8-82.5,45.7-123.6,68.6
			c-7.4,4.1-14.9,6.2-23.3,4.3c-12.4-2.8-21.1-12.6-22.9-25.4c-1.6-11.4,4.5-23.1,15.6-29.3c51.5-28.6,103-57.1,154.4-85.6
			c8.2-4.5,16.3-9.1,25.4-14.2c-15.3-6.7-29.4-13.2-43.8-19.2c-54-22.7-108.5-44.4-164.2-62.8c-18.1-6-36-5.6-53.7,1.4
			c-7,2.8-14,5.4-20.8,8.5c-58.4,27.2-116.7,54.4-175.1,81.7c-0.7,0.3-1.2,1.1-2.1,1.9c49,21.6,97.5,42.9,146.1,64.3
			c23.7,10.4,47.5,20.8,71.2,31.3c10,4.5,15.7,12.4,16.4,23.3c0.6,10.4-3.6,19-12.6,24.3c-4.6,2.7-10.2,3.6-15.5,5.4
			c2.2,15.7-2.5,22.1-18.9,25.7c-9.7,2.2-19.3,4.9-29,7.3c-8.1,2-10.8,7.3-11.5,15.4c-2.1,26.1-0.7,52,2,77.9
			c1.3,12.7,3.9,25.4,6,38.5c2.6-0.9,4.1-1.2,5.4-1.9c11.3-6.5,22.6-13.1,33.9-19.6c9.3-5.4,20.3-2.9,25.8,5.9
			c5.3,8.5,3,19.5-5.8,25.4c-8,5.3-15.9,10.9-24.5,15.1c-10.1,4.9-20.7,9.6-31.5,12.3c-15.7,3.8-29.1-4-35.3-19
			c-1.7-4.1-3.2-8.3-4.2-12.6c-9.3-42.6-11.9-85.7-8.5-129.1c1.6-21,12.6-34.7,32-41.6C427.8,426.4,439.4,423.2,452.1,419.2
			L452.1,419.2z M248.7,664.4c-0.2,1.3-0.4,1.9-0.4,2.4c0.2,22.9,0.3,45.8,0.7,68.8c0,1.8,1.9,4.1,3.6,5.1
			c9.7,6,19.2,12.1,29.3,17.3C356,796.6,430.3,835,504.5,873.4c1.2,0.6,2.6,0.9,4.6,1.6c-1.2-33.2-2.3-65.6-3.4-96.4
			c-6.8-1.3-12.8-1.4-17.7-3.7c-62.2-28.5-124.3-57.3-186.4-86C284.2,680.8,266.7,672.7,248.7,664.4L248.7,664.4z"/>
		<path class="st2" d="M452.1,419.2c-12.6,3.9-24.3,7.1-35.7,11.2c-19.4,6.9-30.4,20.6-32,41.6c-3.4,43.5-0.8,86.5,8.5,129.1
			c0.9,4.3,2.4,8.5,4.2,12.6c6.3,15,19.6,22.8,35.3,19c10.9-2.7,21.4-7.4,31.5-12.3c8.6-4.2,16.5-9.8,24.5-15.1
			c8.8-5.9,11.2-16.9,5.8-25.4c-5.5-8.8-16.5-11.3-25.8-5.9c-11.3,6.6-22.6,13.1-33.9,19.6c-1.3,0.7-2.8,1-5.4,1.9
			c-2.1-13.1-4.6-25.8-6-38.5c-2.7-25.9-4.2-51.8-2-77.9c0.7-8.1,3.4-13.4,11.5-15.4c9.7-2.4,19.3-5.2,29-7.3
			c16.4-3.7,21-10,18.9-25.7c5.3-1.8,10.9-2.7,15.5-5.4c9-5.3,13.3-13.9,12.6-24.3c-0.7-10.9-6.3-18.9-16.4-23.3
			c-23.7-10.5-47.5-20.9-71.2-31.3c-48.5-21.3-97-42.7-146.1-64.3c0.9-0.8,1.4-1.6,2.1-1.9c58.4-27.3,116.7-54.5,175.1-81.7
			c6.8-3.2,13.8-5.8,20.8-8.5c17.7-7.1,35.6-7.4,53.7-1.4c55.7,18.4,110.2,40.1,164.2,62.8c14.3,6,28.5,12.5,43.8,19.2
			c-9,5-17.2,9.6-25.4,14.2c-51.5,28.5-103,57-154.4,85.6c-11.1,6.2-17.2,17.9-15.6,29.3c1.8,12.8,10.5,22.6,22.9,25.4
			c8.3,1.9,15.9-0.2,23.3-4.3c41.2-22.9,82.4-45.8,123.6-68.6c22-12.2,44.1-24.4,67-37.1c0.6,6.1,1.3,11.5,1.6,16.9
			c2,48.9,4.3,97.8,5.7,146.7c1.4,47.8,2,95.5,2.6,143.3c0.6,40.8,1.1,81.7,0.9,122.5c0,13.1-5.4,23.8-18.5,29.9
			c-28.5,13.5-56.7,27.5-84.9,41.4c-34.5,17-68.9,34.2-103.3,51.3c-2,1-4.1,1.9-6.9,3.2c-0.5-10.6-0.9-20.3-1.3-30
			c-2.5-68.1-4.9-136.3-7.4-204.4c-2.1-59.1-4.3-118.2-6.5-177.3c-0.7-17.7-15.1-31.5-32.3-31.1c-17.4,0.4-31.7,14.5-31.3,32.1
			c0.6,29.3,1.9,58.5,2.9,87.8c1.5,42.4,3,84.7,4.6,127.1c0.7,20,1.5,40,2.2,60.9c-71.9-33.2-143.2-66.2-216.4-100
			c2.3-1.3,3.7-1.9,4.8-2.8c13.1-10.4,26.2-20.9,39.3-31.4c8.5-6.8,10.3-18,4.3-26.1c-6.4-8.7-16.9-10.1-26.3-2.8
			c-18.7,14.5-37.2,29.3-55.7,44c-1.9,1.5-3.8,3-6.9,5.3c-2-98.7-3.9-196.2-5.9-294.9C312.1,357.6,381.9,388.3,452.1,419.2
			L452.1,419.2z"/>
		<path class="st2" d="M248.7,664.4c18.1,8.3,35.5,16.4,52.9,24.4c62.1,28.7,124.2,57.5,186.4,86c5,2.3,10.9,2.3,17.7,3.7
			c1.1,30.9,2.3,63.2,3.4,96.4c-2-0.7-3.4-1-4.6-1.6C430.3,834.9,356,796.6,281.9,758c-10.1-5.2-19.6-11.4-29.3-17.3
			c-1.7-1-3.5-3.3-3.6-5.1c-0.4-22.9-0.6-45.8-0.7-68.8C248.3,666.2,248.4,665.7,248.7,664.4L248.7,664.4z"/>
	</g>
</g>
</svg>
