<?xml version="1.0" encoding="UTF-8"?><svg id="a" xmlns="http://www.w3.org/2000/svg" viewBox="0 0 1013.35 1013.35"><defs><style>.d{fill:#f7e180;}.e{fill:#ff4b00;}.f{fill:#fff;}</style></defs><g id="b"><circle class="d" cx="506.67" cy="506.67" r="506.67"/></g><g id="c"><g><path class="e" d="M893.2,562.38c.98,50.26,2.15,107.84,3.21,165.42,.8,43.76-15.26,80.94-44.49,112.84-7.35,8.02-16.59,13.21-26.27,18.08-30.48,15.32-60.62,31.31-91,46.84-36.62,18.71-73.34,37.22-110.02,55.8-13.99,7.09-27.5,15.51-42.11,20.93-37.43,13.91-73.83,11.27-109.57-7.88-31.32-16.79-64.01-31.01-95.61-47.3-56.91-29.34-113.69-58.94-169.99-89.41-14.91-8.07-29.12-18.43-41.46-30.07-18.91-17.82-25.71-41.75-26.44-67.23-1.71-59.25-3.07-118.52-4.57-177.78-1.15-45.3-2.22-90.6-3.45-135.89-.75-27.66-1.83-55.31-2.56-82.97-.5-18.78-1.05-37.58-.86-56.36,.4-40.32,20.03-70.5,54.67-88.08,77.54-39.34,155.11-78.73,234.97-113.34,47.7-20.67,95.77-22.63,144.94-6.01,75.1,25.38,149.15,53.44,221.07,86.88,24.16,11.23,45.68,26.26,63.45,46.43,21.15,24.01,31.22,52.12,33.95,83.86,7.39,85.83,9.2,171.89,12.14,265.24ZM315.83,295.01c2.76,1.29,4.56,2.19,6.4,2.98,52.02,22.32,104.03,44.64,156.07,66.9,7.17,3.06,12.99,7.62,17.12,14.23,8.17,13.1,6.94,30.13-2.92,41.69-10.36,12.14-26.35,15.9-41.61,9.38-57.3-24.47-114.54-49.05-171.82-73.57-1.47-.63-3-1.09-5.05-1.83,2.55,86.56,5.08,172.39,7.65,259.39,2.3-1.86,3.45-2.78,4.6-3.71,11.83-9.66,23.53-19.49,35.55-28.92,6.63-5.2,15.32-4.54,21.32,.83,5.93,5.31,7.67,13.7,3.57,20.58-1.87,3.13-4.81,5.77-7.66,8.15-12,10-24.15,19.83-36.73,30.11,65.78,29.66,130.9,59.03,196.77,88.74-.83-31.7-1.64-62.46-2.45-93.4-6.05,3.57-11.49,6.89-17.04,10.03-16.9,9.56-34,18.74-53.17,22.96-18.17,4-32.32-.97-39.76-14.7-3.64-6.71-6.48-14.1-8.32-21.52-11.22-45.4-14.89-91.51-11.29-138.13,1.02-13.15,3.76-26.12,15.58-34.39,5.82-4.07,12.08-7.79,18.63-10.49,18.56-7.66,38.21-11.28,57.99-14.03,9.24-1.28,16.8,4.7,18.44,13.7,1.49,8.18-4.15,16.3-12.93,18.54-1.64,.42-3.33,.59-4.98,.98-14.98,3.62-29.96,7.27-44.93,10.92-10.75,2.62-15.41,9.56-15.14,20.51,.58,23.37-.23,46.83,1.68,70.08,1.55,18.87,5.65,37.61,9.76,56.16,2.72,12.28,3.91,12.79,15.76,7.76,14.35-6.09,28.39-13.05,42.04-20.58,8.93-4.92,17.17-8.82,26.7-1.29,0-6.03,.12-11.28-.02-16.52-1.06-41.34-2.11-82.68-3.32-124.01-.3-10.26,2.18-19.45,8.79-27.34,10.42-12.43,26.84-17.04,41.95-11.93,15.27,5.16,25.53,18.9,26.14,36.16,1.09,30.76,1.81,61.53,2.63,92.29,1.82,68.52,3.59,137.04,5.39,205.56,.47,18.06,.94,36.13,1.42,54.95,3.13-1.53,5.63-2.7,8.07-3.96,53.08-27.16,106.13-54.39,159.3-81.39,4.42-2.25,5.67-4.87,5.56-9.63-1.54-65.32-2.54-130.65-4.37-195.95-1.48-52.65-3.87-105.28-5.91-157.92-.2-5.12-.78-10.23-1.21-15.75-1.35,.65-2.03,.94-2.67,1.3-44.88,25.08-89.77,50.13-134.61,75.29-8.73,4.9-17.85,7.12-27.71,5.19-16.6-3.25-28.85-16.04-31.34-32.4-2.43-15.94,5.31-31.51,20.15-39.85,44.33-24.91,88.72-49.71,133.08-74.57,1.67-.93,3.28-1.96,5.81-3.48-13.83-5.88-26.29-11.7-39.11-16.53-49.48-18.64-99.06-37-148.63-55.38-12.95-4.8-25.79-4.54-38.41,1.51-4.57,2.19-9.44,3.78-14.02,5.95-44.72,21.26-89.41,42.58-134.09,63.91-4.01,1.91-7.92,4.01-12.68,6.42Zm-31.84,381.41c0,7.4-.13,14.18,.04,20.95,.15,5.97-1.27,13.11,1.5,17.56,2.81,4.53,9.75,6.66,15.11,9.39,65.58,33.48,131.21,66.89,196.83,100.29,1.2,.61,2.53,.96,3.14,1.19v-54.45c-6.2-1.82-11.41-2.72-16.09-4.82-61.99-27.81-123.91-55.79-185.85-83.71-4.91-2.21-9.87-4.3-14.69-6.4Z"/><path class="f" d="M315.83,295.01c4.75-2.41,8.67-4.5,12.68-6.42,44.69-21.33,89.38-42.65,134.09-63.91,4.58-2.18,9.45-3.76,14.02-5.95,12.62-6.06,25.46-6.31,38.41-1.51,49.57,18.38,99.15,36.74,148.63,55.38,12.82,4.83,25.28,10.65,39.11,16.53-2.53,1.52-4.15,2.55-5.81,3.48-44.36,24.85-88.75,49.66-133.08,74.57-14.84,8.34-22.58,23.9-20.15,39.85,2.49,16.36,14.75,29.15,31.34,32.4,9.86,1.93,18.98-.29,27.71-5.19,44.83-25.16,89.73-50.21,134.61-75.29,.64-.36,1.32-.64,2.67-1.3,.43,5.52,1.01,10.63,1.21,15.75,2.04,52.64,4.43,105.27,5.91,157.92,1.83,65.31,2.84,130.64,4.37,195.95,.11,4.76-1.14,7.38-5.56,9.63-53.16,27-106.21,54.23-159.3,81.39-2.45,1.25-4.94,2.42-8.07,3.96-.49-18.82-.95-36.89-1.42-54.95-1.79-68.52-3.57-137.04-5.39-205.56-.82-30.77-1.54-61.54-2.63-92.29-.61-17.26-10.87-31-26.14-36.16-15.11-5.11-31.53-.5-41.95,11.93-6.61,7.88-9.1,17.08-8.79,27.34,1.22,41.33,2.26,82.67,3.32,124.01,.13,5.24,.02,10.49,.02,16.52-9.53-7.53-17.77-3.63-26.7,1.29-13.65,7.53-27.69,14.48-42.04,20.58-11.85,5.03-13.05,4.52-15.76-7.76-4.1-18.55-8.2-37.29-9.76-56.16-1.91-23.25-1.1-46.71-1.68-70.08-.27-10.95,4.39-17.9,15.14-20.51,14.98-3.65,29.95-7.29,44.93-10.92,1.64-.4,3.34-.56,4.98-.98,8.78-2.25,14.41-10.36,12.93-18.54-1.64-9-9.2-14.98-18.44-13.7-19.78,2.75-39.43,6.37-57.99,14.03-6.55,2.7-12.81,6.42-18.63,10.49-11.82,8.27-14.56,21.23-15.58,34.39-3.6,46.62,.07,92.73,11.29,138.13,1.83,7.42,4.67,14.81,8.32,21.52,7.45,13.72,21.6,18.7,39.76,14.7,19.18-4.22,36.27-13.4,53.17-22.96,5.55-3.14,10.99-6.46,17.04-10.03,.81,30.94,1.62,61.7,2.45,93.4-65.87-29.71-130.99-59.08-196.77-88.74,12.58-10.28,24.73-20.1,36.73-30.11,2.85-2.38,5.79-5.02,7.66-8.15,4.1-6.88,2.36-15.27-3.57-20.58-6-5.37-14.69-6.03-21.32-.83-12.01,9.43-23.71,19.26-35.55,28.92-1.14,.93-2.29,1.85-4.6,3.71-2.57-86.99-5.1-172.82-7.65-259.39,2.05,.74,3.59,1.2,5.05,1.83,57.27,24.52,114.52,49.1,171.82,73.57,15.26,6.52,31.26,2.76,41.61-9.38,9.86-11.56,11.09-28.59,2.92-41.69-4.12-6.61-9.95-11.16-17.12-14.23-52.04-22.26-104.05-44.59-156.07-66.9-1.85-.79-3.65-1.69-6.4-2.98Z"/><path class="f" d="M283.99,676.42c4.82,2.1,9.78,4.19,14.69,6.4,61.94,27.92,123.86,55.9,185.85,83.71,4.68,2.1,9.89,3,16.09,4.82v54.45c-.61-.23-1.94-.58-3.14-1.19-65.62-33.4-131.25-66.81-196.83-100.29-5.36-2.74-12.3-4.87-15.11-9.39-2.76-4.45-1.35-11.59-1.5-17.56-.17-6.78-.04-13.56-.04-20.95Z"/></g></g></svg>