<?xml version="1.0" encoding="UTF-8"?><svg xmlns="http://www.w3.org/2000/svg" viewBox="0 0 1028 1028"><defs><style>.c{fill:#f9e381;}.d{fill:#f7931e;}.e{fill:#fff;}</style></defs><g id="a"><circle class="c" cx="514" cy="514" r="514"/></g><g id="b"><g><path class="d" d="M873.78,560.67c1.26,61.06,3.55,122.12,3.39,183.18-.1,37.04-15.72,68.57-43.68,93.42-2.26,2.01-5.1,3.45-7.82,4.84-58.08,29.61-116.19,59.18-174.29,88.76-23.02,11.72-45.66,24.27-69.15,34.95-28.26,12.84-57.51,14.2-85.96,.29-61.57-30.1-123.19-60.14-184.2-91.35-37.8-19.34-74.69-40.51-111.68-61.39-18.68-10.55-31.81-25.97-35.94-47.77-.79-4.14-1.49-8.36-1.61-12.56-2-71.42-3.97-142.84-5.81-214.27-1.27-49.3-2.33-98.6-3.5-147.91-.36-14.99-.79-29.97-1.17-44.96-.5-19.37-1.59-38.76-1.35-58.12,.39-31.22,18.18-51.66,44.45-64.87,49.82-25.04,100.05-49.28,150.33-73.41,27.03-12.98,54.45-25.17,81.8-37.48,41.3-18.6,83.37-20.82,126.54-6.47,76.66,25.47,152.09,54.02,225.44,87.93,17.07,7.89,32.7,18,46.4,30.98,21.65,20.51,32.99,45.47,35.61,75.36,6.37,72.78,8.54,145.73,10.96,218.69,.47,14.04,.07,28.11,.07,42.17h1.18Zm-422.81-140.83c-70.53-30.2-140.63-60.22-211.62-90.62,2.94,98.74,5.83,196.17,8.76,294.86,2.98-2.36,4.91-3.86,6.8-5.39,18.41-14.87,36.71-29.89,55.29-44.54,9.31-7.34,19.79-6.02,26.3,2.57,6.1,8.05,4.4,19.26-4.03,26.16-12.96,10.61-25.94,21.2-38.95,31.75-1.15,.93-2.55,1.54-4.81,2.88,73.51,33.11,145.1,65.35,217.36,97.89-.98-20.93-1.92-40.9-2.84-60.88-1.95-42.33-3.92-84.67-5.84-127-1.33-29.25-2.89-58.49-3.76-87.76-.53-17.65,13.59-31.86,30.99-32.44,17.17-.57,31.75,13.11,32.58,30.82,2.79,59.07,5.5,118.15,8.22,177.23,3.14,68.12,6.24,136.24,9.38,204.36,.45,9.73,1.02,19.46,1.58,30.03,2.85-1.37,4.9-2.29,6.89-3.31,34.27-17.45,68.51-34.98,102.82-52.35,28.1-14.23,56.16-28.54,84.5-42.27,12.99-6.3,18.24-17.03,18.16-30.12-.26-40.85-1.15-81.69-2.12-122.53-1.13-47.77-2.2-95.55-4.05-143.29-1.89-48.89-4.66-97.74-7.13-146.6-.27-5.44-1.09-10.84-1.72-16.91-22.81,12.91-44.73,25.31-66.63,37.73-40.99,23.25-82,46.47-122.94,69.81-7.32,4.17-14.88,6.36-23.22,4.56-12.41-2.68-21.19-12.35-23.1-25.13-1.7-11.39,4.25-23.13,15.32-29.43,51.17-29.1,102.39-58.1,153.58-87.15,8.14-4.62,16.25-9.28,25.24-14.41-15.34-6.59-29.56-12.93-43.96-18.82-54.27-22.21-108.95-43.33-164.84-61.18-18.16-5.8-36.01-5.29-53.65,1.95-6.94,2.85-13.97,5.51-20.73,8.74-58.13,27.74-116.2,55.58-174.28,83.42-.71,.34-1.21,1.11-2.1,1.95,49.23,21.1,97.95,41.98,146.68,62.86,23.84,10.21,47.72,20.36,71.53,30.64,10.09,4.36,15.82,12.29,16.6,23.16,.75,10.39-3.43,19.07-12.39,24.44-4.56,2.73-10.16,3.71-15.42,5.53,2.31,15.72-2.29,22.08-18.61,25.9-9.71,2.27-19.3,5.1-28.96,7.62-8.06,2.1-10.75,7.44-11.34,15.54-1.89,26.08-.17,52,2.78,77.85,1.45,12.73,4.13,25.32,6.34,38.44,2.58-.92,4.13-1.22,5.41-1.97,11.27-6.6,22.51-13.28,33.74-19.95,9.25-5.5,20.31-3.11,25.88,5.63,5.4,8.47,3.15,19.5-5.59,25.44-7.95,5.4-15.84,11.1-24.4,15.36-10.08,5.02-20.56,9.83-31.42,12.6-15.7,4-29.09-3.73-35.5-18.62-1.74-4.05-3.3-8.26-4.28-12.54-9.7-42.52-12.69-85.54-9.75-129.04,1.42-21.01,12.28-34.78,31.64-41.92,11.32-4.17,22.95-7.49,35.55-11.55Zm-201.04,247.14c-.2,1.31-.38,1.88-.37,2.44,.41,22.92,.76,45.84,1.42,68.75,.05,1.75,1.94,4.05,3.61,5.06,9.71,5.88,19.36,11.93,29.47,17.06,74.53,37.84,149.17,75.47,223.78,113.15,1.22,.62,2.62,.89,4.62,1.55-1.51-33.2-2.99-65.56-4.39-96.4-6.81-1.28-12.79-1.3-17.78-3.52-62.48-27.86-124.82-56.05-187.2-84.15-17.5-7.89-35.01-15.76-53.16-23.93Z"/><path class="e" d="M450.96,419.83c-12.6,4.06-24.23,7.38-35.55,11.55-19.36,7.14-30.22,20.92-31.64,41.92-2.95,43.5,.04,86.52,9.75,129.04,.98,4.29,2.53,8.5,4.28,12.54,6.41,14.89,19.8,22.63,35.5,18.62,10.85-2.77,21.33-7.57,31.42-12.6,8.56-4.27,16.44-9.96,24.4-15.36,8.74-5.94,10.99-16.97,5.59-25.44-5.57-8.73-16.64-11.13-25.88-5.63-11.23,6.68-22.46,13.35-33.74,19.95-1.28,.75-2.82,1.05-5.41,1.97-2.2-13.12-4.88-25.71-6.34-38.44-2.95-25.85-4.68-51.77-2.78-77.85,.59-8.1,3.27-13.44,11.34-15.54,9.66-2.52,19.24-5.35,28.96-7.62,16.32-3.82,20.91-10.18,18.61-25.9,5.25-1.81,10.86-2.79,15.42-5.53,8.96-5.38,13.14-14.05,12.39-24.44-.78-10.87-6.51-18.8-16.6-23.16-23.81-10.29-47.69-20.43-71.53-30.64-48.72-20.87-97.45-41.76-146.68-62.86,.89-.84,1.39-1.61,2.1-1.95,58.08-27.84,116.15-55.68,174.28-83.42,6.76-3.23,13.79-5.89,20.73-8.74,17.64-7.24,35.49-7.75,53.65-1.95,55.89,17.85,110.57,38.97,164.84,61.18,14.4,5.89,28.62,12.24,43.96,18.82-8.99,5.13-17.1,9.79-25.24,14.41-51.2,29.05-102.41,58.05-153.58,87.15-11.07,6.29-17.02,18.04-15.32,29.43,1.9,12.78,10.69,22.45,23.1,25.13,8.34,1.8,15.9-.38,23.22-4.56,40.94-23.35,81.95-46.56,122.94-69.81,21.9-12.42,43.82-24.81,66.63-37.73,.63,6.06,1.45,11.47,1.72,16.91,2.47,48.86,5.24,97.72,7.13,146.6,1.85,47.74,2.91,95.52,4.05,143.29,.97,40.84,1.86,81.69,2.12,122.53,.08,13.1-5.17,23.83-18.16,30.12-28.34,13.74-56.4,28.05-84.5,42.27-34.31,17.37-68.55,34.9-102.82,52.35-2,1.02-4.04,1.94-6.89,3.31-.56-10.57-1.13-20.3-1.58-30.03-3.14-68.12-6.24-136.24-9.38-204.36-2.72-59.08-5.44-118.15-8.22-177.23-.83-17.71-15.41-31.39-32.58-30.82-17.4,.58-31.51,14.79-30.99,32.44,.87,29.26,2.44,58.51,3.76,87.76,1.92,42.34,3.88,84.67,5.84,127,.92,19.97,1.86,39.95,2.84,60.88-72.26-32.54-143.85-64.78-217.36-97.89,2.26-1.34,3.66-1.95,4.81-2.88,13.01-10.55,25.99-21.14,38.95-31.75,8.43-6.91,10.13-18.12,4.03-26.16-6.51-8.59-16.99-9.91-26.3-2.57-18.58,14.65-36.87,29.68-55.29,44.54-1.9,1.53-3.82,3.03-6.8,5.39-2.93-98.69-5.83-196.12-8.76-294.86,70.98,30.4,141.09,60.41,211.62,90.62Z"/><path class="e" d="M249.92,666.97c18.14,8.17,35.65,16.04,53.16,23.93,62.38,28.1,124.72,56.29,187.2,84.15,4.99,2.23,10.97,2.24,17.78,3.52,1.4,30.84,2.88,63.21,4.39,96.4-2-.66-3.4-.93-4.62-1.55-74.62-37.67-149.25-75.31-223.78-113.15-10.11-5.13-19.76-11.18-29.47-17.06-1.66-1.01-3.55-3.3-3.61-5.06-.66-22.91-1.01-45.83-1.42-68.75-.01-.56,.16-1.13,.37-2.44Z"/></g></g></svg>